<svg height="512" viewBox="0 0 64 64" width="512" xmlns="http://www.w3.org/2000/svg">
    <path fill="white" d="m57 16h-12a1 1 0 0 0 0 2h12a3 3 0 0 1 3 3v30a3 3 0 0 1 -3 3h-7a1 1 0 0 0 0 2h7a5.006 5.006 0 0 0 5-5v-30a5.006 5.006 0 0 0 -5-5z" />
    <path fill="white" d="m46 54h-39a3 3 0 0 1 -3-3v-30a3 3 0 0 1 3-3h12a1 1 0 0 0 0-2h-12a5.006 5.006 0 0 0 -5 5v30a5.006 5.006 0 0 0 5 5h39a1 1 0 0 0 0-2z" />
    <circle fill="white" cx="8" cy="49" r="1" />
    <circle fill="white" cx="8" cy="45" r="1" />
    <path fill="white" d="m25 36h16a1 1 0 0 0 1-1v-20a1 1 0 0 0 -1-1h-16a1 1 0 0 1 0-2h16a1 1 0 0 0 0-2h-16a3 3 0 0 0 -3 3v12a1 1 0 0 0 2 0v-9.184a2.966 2.966 0 0 0 1 .184h15v18h-15a1 1 0 0 1 -1-1v-4a1 1 0 0 0 -2 0v4a3 3 0 0 0 3 3z" />
    <path fill="white" d="m32 19h-2a1 1 0 0 0 -1 1v8a1 1 0 0 0 1 1h2a2.987 2.987 0 0 0 2.22-5 2.987 2.987 0 0 0 -2.22-5zm-1 2h1a1 1 0 0 1 0 2h-1zm1 6h-1v-2h1a1 1 0 0 1 0 2z" />
    <path fill="white" d="m44 6h3v3a1 1 0 0 0 2 0v-4a1 1 0 0 0 -1-1h-4a1 1 0 0 0 0 2z" />
    <path fill="white" d="m16 10a1 1 0 0 0 1-1v-3h3a1 1 0 0 0 0-2h-4a1 1 0 0 0 -1 1v4a1 1 0 0 0 1 1z" />
    <path fill="white" d="m49 37a1 1 0 0 0 -2 0v3h-3a1 1 0 0 0 0 2h4a1 1 0 0 0 1-1z" />
    <path fill="white" d="m16 42h4a1 1 0 0 0 0-2h-3v-3a1 1 0 0 0 -2 0v4a1 1 0 0 0 1 1z" />
    <path fill="white" d="m27 42a1 1 0 0 0 -.937.649l-3 8a1 1 0 0 0 1.874.7l.506-1.349h3.114l.506 1.351a1 1 0 0 0 .937.649 1.029 1.029 0 0 0 .351-.063 1 1 0 0 0 .586-1.288l-3-8a1 1 0 0 0 -.937-.649zm-.807 6 .807-2.152.807 2.152z" />
    <path fill="white" d="m36 42h-2a1 1 0 0 0 -1 1v8a1 1 0 0 0 2 0v-3h1a1 1 0 0 1 1 1v2a1 1 0 0 0 2 0v-2a2.981 2.981 0 0 0 -.78-2 2.987 2.987 0 0 0 -2.22-5zm-1 4v-2h1a1 1 0 0 1 0 2z" />
    <path fill="white" d="m45 25a1 1 0 0 0 1 1h7a1 1 0 0 0 0-2h-7a1 1 0 0 0 -1 1z" />
    <path fill="white" d="m49 22a1 1 0 0 0 0-2h-2a1 1 0 0 0 0 2z" />
    <path fill="white" d="m47 28a1 1 0 0 0 0 2h3a1 1 0 0 0 0-2z" />
    <path fill="white" d="m9 25a1 1 0 0 0 1 1h7a1 1 0 0 0 0-2h-7a1 1 0 0 0 -1 1z" />
    <path fill="white" d="m16 22a1 1 0 0 0 0-2h-2a1 1 0 0 0 0 2z" />
    <path fill="white" d="m13 30h3a1 1 0 0 0 0-2h-3a1 1 0 0 0 0 2z" />
    <path fill="white" d="m55 40a1 1 0 0 0 1-1v-6a1 1 0 0 0 -2 0v6a1 1 0 0 0 1 1z" />
</svg>